<svg width="78" height="78" xmlns="http://www.w3.org/2000/svg" viewBox="0 0 78 78">
  <path fill="#565a5c" d="M54.76,36A3.992,3.992,0,0,1,51,38.639H42v36a3,3,0,0,1-6,0v-36H27a4,4,0,0,1-2.56-7.07l12-10a3.988,3.988,0,0,1,5.12,0l12,10A4.007,4.007,0,0,1,54.76,36Z"/>
  <path fill="#565a5c" d="M46,53.549a1.333,1.333,0,0,0,.49.09"/>
  <path fill="#565a5c" d="M46.5,50.639a1.386,1.386,0,0,0-.5.09"/>
  <path fill="#565a5c" d="M78,36.139a17.519,17.519,0,0,1-17.5,17.5c-.17,0-1.33,0-1.5-.02l-12.51.02a1.333,1.333,0,0,1-.49-.09,1.494,1.494,0,0,1,0-2.82,1.386,1.386,0,0,1,.5-.09h14a14.5,14.5,0,0,0,1.58-28.92c-.52-.05-1.05-.08-1.58-.08h-.35a1.49,1.49,0,0,1-1-.4,2.258,2.258,0,0,1-.542-1.074c-.138-.462-.306-.916-.478-1.365a20.484,20.484,0,0,0-38.26,0q-.21.54-.39,1.08a3.353,3.353,0,0,1-.53,1.26,1.542,1.542,0,0,1-1.12.5H17.5c-.53,0-1.06.03-1.58.08a14.5,14.5,0,0,0,1.58,28.92H31.49a1.5,1.5,0,0,1,.01,3s-13.5,0-13.5-.02a4.176,4.176,0,0,1-.5.02,17.5,17.5,0,0,1-.77-34.98,23.489,23.489,0,0,1,44.54,0A17.519,17.519,0,0,1,78,36.139Z"/>
</svg>
